<?xml version="1.0" standalone="no"?>
<!DOCTYPE svg PUBLIC "-//W3C//DTD SVG 20010904//EN"
 "http://www.w3.org/TR/2001/REC-SVG-20010904/DTD/svg10.dtd">
<svg version="1.0" xmlns="http://www.w3.org/2000/svg"
 width="530.000000pt" height="530.000000pt" viewBox="0 0 530.000000 530.000000"
 preserveAspectRatio="xMidYMid meet">
<metadata>
Created by potrace 1.11, written by Peter Selinger 2001-2013
</metadata>
<g transform="translate(0.000000,530.000000) scale(0.100000,-0.100000)"
fill="#000000" stroke="none">
<path d="M2410 5290 c-30 -4 -82 -10 -115 -14 -33 -4 -112 -18 -177 -31 -729
-148 -1362 -598 -1748 -1245 -128 -213 -263 -552 -304 -760 -2 -14 -9 -47 -15
-75 -6 -27 -13 -68 -16 -90 -7 -55 -14 -94 -21 -130 -9 -47 -12 -473 -4 -540
5 -33 11 -82 14 -110 54 -436 229 -859 515 -1245 149 -200 489 -520 651 -611
14 -8 27 -16 30 -19 24 -26 280 -161 400 -212 351 -147 679 -209 1070 -203
234 4 286 9 493 50 15 3 39 7 55 10 237 47 581 190 817 338 89 57 280 198 336
249 106 96 208 199 279 283 68 80 220 287 220 299 0 3 13 24 29 48 24 36 143
266 172 333 73 168 157 465 175 615 3 30 8 58 10 61 17 30 26 479 11 619 -49
471 -206 891 -481 1280 -33 47 -62 87 -65 90 -3 3 -26 30 -51 60 -49 61 -154
173 -214 229 -21 20 -50 47 -65 61 -14 14 -48 43 -76 65 -27 22 -52 43 -55 46
-10 10 -175 125 -240 165 -228 143 -558 278 -806 328 -10 3 -41 9 -69 16 -122
28 -281 42 -485 44 -118 2 -240 0 -270 -4z"/>
</g>
</svg>
